<?xml version="1.0" encoding="UTF-8"?>
<svg version="1.1" xmlns="http://www.w3.org/2000/svg" width="500" height="500">
<path d="M0 0 C165 0 330 0 500 0 C500 165 500 330 500 500 C335 500 170 500 0 500 C0 335 0 170 0 0 Z " fill="#FDFDFD" transform="translate(0,0)"/>
<path d="M0 0 C6.6 0 13.2 0 20 0 C20 25.74 20 51.48 20 78 C39.14 78 58.28 78 78 78 C77.67 70.41 77.34 62.82 77 55 C76.73611897 36.66026874 77.44364148 18.33002618 78 0 C84.6 0 91.2 0 98 0 C98.06785026 10.8313373 98.12285915 21.66253281 98.15543652 32.49403477 C98.17107415 37.52385433 98.19227774 42.5535206 98.22631836 47.58325195 C98.25897955 52.43970682 98.27686732 57.29601448 98.28463173 62.15257072 C98.2901631 64.0028814 98.30096453 65.85318428 98.31719017 67.70343208 C98.33905438 70.30059167 98.34196318 72.89714755 98.34057617 75.49438477 C98.351362 76.25467987 98.36214783 77.01497498 98.3732605 77.79830933 C98.34092027 83.41638754 97.41284609 88.50138924 93.3515625 92.70703125 C92.49691406 93.25423828 92.49691406 93.25423828 91.625 93.8125 C91.06039062 94.19019531 90.49578125 94.56789063 89.9140625 94.95703125 C85.23253182 97.50798776 81.47990368 98.26436592 76.13354492 98.33813477 C75.46291519 98.34967087 74.79228546 98.36120697 74.10133362 98.37309265 C71.89435424 98.40725388 69.68765373 98.42587095 67.48046875 98.44140625 C66.72275995 98.44830915 65.96505116 98.45521206 65.18438148 98.46232414 C61.17459547 98.49809569 57.16494896 98.52166838 53.1550293 98.53540039 C49.02878579 98.55194393 44.90425744 98.61037662 40.7785902 98.67854404 C37.59137636 98.7234678 34.40456904 98.73690481 31.21706581 98.74201775 C29.6968456 98.74987872 28.17663631 98.76942461 26.65672874 98.80124092 C13.318261 99.06205272 13.318261 99.06205272 8.19262695 94.70288086 C6.48335266 92.89537048 6.48335266 92.89537048 5 91 C4.48040207 90.36675308 3.96080414 89.73350616 3.42546082 89.08106995 C0.05500116 84.16044202 -0.28312803 79.74460256 -0.22705078 73.9050293 C-0.22734283 73.10450638 -0.22763489 72.30398346 -0.22793579 71.47920227 C-0.22654705 68.84409592 -0.21100739 66.20927546 -0.1953125 63.57421875 C-0.19158075 61.74290623 -0.18873454 59.91159172 -0.18673706 58.08027649 C-0.17911337 53.26832534 -0.15947573 48.45649559 -0.1373291 43.64459229 C-0.11684344 38.73117718 -0.10772953 33.8177424 -0.09765625 28.90429688 C-0.07622864 19.26946943 -0.04105678 9.63476382 0 0 Z " fill="#F95B5D" transform="translate(173,180)"/>
<path d="M0 0 C6.27 0 12.54 0 19 0 C19 5.28 19 10.56 19 16 C44.74 16 70.48 16 97 16 C97 22.27 97 28.54 97 35 C86.31632325 35.09051603 75.63290289 35.16383989 64.94892883 35.20724869 C59.98745429 35.22808703 55.02625663 35.25633595 50.06494141 35.30175781 C45.27330824 35.34534963 40.48194073 35.36916532 35.69012451 35.37950897 C33.86574118 35.38687645 32.04137171 35.40126339 30.21710205 35.42292023 C27.65353441 35.45213201 25.09105213 35.45594867 22.52734375 35.45410156 C21.40632011 35.47567322 21.40632011 35.47567322 20.26264954 35.49768066 C13.65701055 35.44647743 8.43455645 33.3064219 3.625 28.75 C-0.14000049 22.37846071 -0.27605312 15.69173243 -0.125 8.5 C-0.08375 5.695 -0.0425 2.89 0 0 Z " fill="#5371FB" transform="translate(218,278)"/>
<path d="M0 0 C0.83144531 0.00902344 1.66289062 0.01804688 2.51953125 0.02734375 C4.55481337 0.0507378 6.58994564 0.08660275 8.625 0.125 C9.54140598 14.14928441 9.71018793 28.06899092 9.625 42.125 C-1.265 42.125 -12.155 42.125 -23.375 42.125 C-23.49875 37.525625 -23.6225 32.92625 -23.75 28.1875 C-23.80462402 26.75543213 -23.85924805 25.32336426 -23.91552734 23.84790039 C-24.0118452 16.42365805 -23.41154724 11.55454521 -18.86962891 5.56420898 C-17.375 4.125 -17.375 4.125 -15.375 4.125 C-15.375 3.465 -15.375 2.805 -15.375 2.125 C-10.12544832 -0.03258273 -5.56689716 -0.11542211 0 0 Z " fill="#5773F8" transform="translate(241.375,215.875)"/>
<path d="M0 0 C14.52 0 29.04 0 44 0 C44 6.27 44 12.54 44 19 C29.48 19 14.96 19 0 19 C0 12.73 0 6.46 0 0 Z " fill="#5270FE" transform="translate(271,216)"/>
<path d="M0 0 C4.29 0 8.58 0 13 0 C13 7.59 13 15.18 13 23 C8.71 23 4.42 23 0 23 C0 15.41 0 7.82 0 0 Z " fill="#FBFAFC" transform="translate(238,235)"/>
<path d="M0 0 C25.41 0 50.82 0 77 0 C77 6.27 77 12.54 77 19 C66.31632325 19.09051603 55.63290289 19.16383989 44.94892883 19.20724869 C39.98745429 19.22808703 35.02625663 19.25633595 30.06494141 19.30175781 C25.27330824 19.34534963 20.48194073 19.36916532 15.69012451 19.37950897 C13.86574118 19.38687645 12.04137171 19.40126339 10.21710205 19.42292023 C7.65353441 19.45213201 5.09105213 19.45594867 2.52734375 19.45410156 C1.40632011 19.47567322 1.40632011 19.47567322 0.26264954 19.49768066 C-5.08111797 19.45625876 -9.65148077 18.23639769 -14 15 C-14.33 14.01 -14.66 13.02 -15 12 C-12.21404372 13.09749793 -9.51457748 14.23612676 -6.81932068 15.54719543 C-2.9056604 17.21911792 0.83117254 17.44085126 5.04663086 17.43237305 C6.20396225 17.44766052 6.20396225 17.44766052 7.38467407 17.46325684 C9.91147268 17.49322832 12.43789123 17.50262821 14.96484375 17.51171875 C16.72605127 17.52857724 18.48724685 17.54672905 20.24842834 17.56611633 C24.86626451 17.61349556 29.48405222 17.64338288 34.10205078 17.66955566 C38.82138637 17.6994223 43.54055522 17.74593161 48.25976562 17.79101562 C57.50644209 17.8769114 66.75310159 17.94277792 76 18 C75.67 12.72 75.34 7.44 75 2 C50.25 1.67 25.5 1.34 0 1 C0 0.67 0 0.34 0 0 Z " fill="#5F72D7" transform="translate(238,294)"/>
<path d="M0 0 C6.6 0 13.2 0 20 0 C20.06785026 10.8313373 20.12285915 21.66253281 20.15543652 32.49403477 C20.17107415 37.52385433 20.19227774 42.5535206 20.22631836 47.58325195 C20.25897955 52.43970682 20.27686732 57.29601448 20.28463173 62.15257072 C20.2901631 64.0028814 20.30096453 65.85318428 20.31719017 67.70343208 C20.33905438 70.30059167 20.34196318 72.89714755 20.34057617 75.49438477 C20.351362 76.25467987 20.36214783 77.01497498 20.3732605 77.79830933 C20.34393898 82.89198272 19.46931236 86.50823812 17 91 C15.515 91.495 15.515 91.495 14 92 C14 90.68 14 89.36 14 88 C15.485 87.505 15.485 87.505 17 87 C17.91487463 82.30805455 18.16757073 77.740313 18.20532227 72.97509766 C18.22017166 71.80335495 18.22017166 71.80335495 18.23532104 70.60794067 C18.26673757 68.04334473 18.2916144 65.47873031 18.31640625 62.9140625 C18.33699295 61.12901344 18.35798986 59.34396907 18.37937927 57.55892944 C18.43442279 52.87367563 18.48390981 48.18837912 18.53222656 43.50305176 C18.58257141 38.71683986 18.63818954 33.93068953 18.69335938 29.14453125 C18.80072405 19.76307161 18.90172904 10.38155931 19 1 C13.06 1 7.12 1 1 1 C1 18.82 1 36.64 1 55 C0.34 55 -0.32 55 -1 55 C-1.22308145 36.65774721 -0.55639514 18.33123289 0 0 Z " fill="#C96982" transform="translate(251,180)"/>
<path d="M0 0 C14.52 0 29.04 0 44 0 C44 6.27 44 12.54 44 19 C29.48 19 14.96 19 0 19 C0 12.73 0 6.46 0 0 Z M2 1 C2 6.28 2 11.56 2 17 C6.89290937 17.16607786 11.7856737 17.32861583 16.67895508 17.48217773 C18.34243427 17.53544145 20.00584908 17.5907578 21.66918945 17.64819336 C24.06447473 17.73054248 26.45989689 17.80542899 28.85546875 17.87890625 C29.5952446 17.90594131 30.33502045 17.93297638 31.09721375 17.96083069 C34.88617671 18.06955378 38.31939877 17.93831637 42 17 C42.02685095 14.52076199 42.04676547 12.0418116 42.0625 9.5625 C42.07506836 8.50192383 42.07506836 8.50192383 42.08789062 7.41992188 C42.09653588 5.61306441 42.05220011 3.80612397 42 2 C40.8000901 0.57174014 40.8000901 0.57174014 37.30639648 0.88647461 C35.66128708 0.88663376 34.01617269 0.89233012 32.37109375 0.90234375 C31.50686295 0.9037587 30.64263214 0.90517365 29.75221252 0.90663147 C26.98060708 0.91224761 24.2090812 0.92480281 21.4375 0.9375 C19.5631522 0.94251292 17.68880315 0.94707619 15.81445312 0.95117188 C11.20960456 0.96222228 6.60481579 0.9794977 2 1 Z " fill="#6370D8" transform="translate(271,216)"/>
<path d="M0 0 C0.66 0 1.32 0 2 0 C2.05856225 4.47911082 2.09378482 8.9581217 2.125 13.4375 C2.14175781 14.69755859 2.15851563 15.95761719 2.17578125 17.25585938 C2.21193786 24.17984933 1.84689071 30.31774582 0 37 C-2.31 37.66 -4.62 38.32 -7 39 C-5.73046875 37.56770833 -4.4609375 36.13541667 -3.19140625 34.703125 C-0.57901762 30.96869403 -0.81950778 26.69253916 -0.68359375 22.265625 C-0.64169922 20.97011719 -0.59980469 19.67460937 -0.55664062 18.33984375 C-0.51683329 16.97656524 -0.47712094 15.61328394 -0.4375 14.25 C-0.39427726 12.87108125 -0.35066179 11.49217474 -0.30664062 10.11328125 C-0.20056042 6.7422881 -0.0985015 3.37122174 0 0 Z " fill="#FED6D8" transform="translate(271,235)"/>
<path d="M0 0 C0.66 0.33 1.32 0.66 2 1 C-1.28269451 4.29832639 -3.4229658 6.30649984 -8.1640625 6.55859375 C-9.6515192 6.54413967 -11.13892865 6.50328962 -12.625 6.4375 C-13.37523437 6.43169922 -14.12546875 6.42589844 -14.8984375 6.41992188 C-18.81779338 6.33305672 -21.59488574 5.89378123 -25 4 C-23.69804687 3.96261719 -22.39609375 3.92523438 -21.0546875 3.88671875 C-19.32809743 3.82103326 -17.60153619 3.75458682 -15.875 3.6875 C-15.0190625 3.66494141 -14.163125 3.64238281 -13.28125 3.61914062 C-8.06649788 3.3985165 -4.64128452 2.58090121 0 0 Z " fill="#FDDDDB" transform="translate(262,274)"/>
<path d="M0 0 C0.33 0 0.66 0 1 0 C1.07468157 4.00178342 1.12885021 8.00329167 1.16479492 12.00561523 C1.17979409 13.36441117 1.20020038 14.72315941 1.22631836 16.08178711 C1.4966355 30.51460212 1.4966355 30.51460212 -2 36 C-3.485 36.495 -3.485 36.495 -5 37 C-5 35.68 -5 34.36 -5 33 C-3.515 32.505 -3.515 32.505 -2 32 C-1.24229215 27.88518795 -0.82844645 23.90659766 -0.68359375 19.7265625 C-0.64169922 18.57285156 -0.59980469 17.41914063 -0.55664062 16.23046875 C-0.51732422 15.04066406 -0.47800781 13.85085937 -0.4375 12.625 C-0.39431641 11.41199219 -0.35113281 10.19898438 -0.30664062 8.94921875 C-0.20094487 5.96624968 -0.09884679 2.98320258 0 0 Z " fill="#E46568" transform="translate(270,235)"/>
<path d="M0 0 C0.99 0.33 1.98 0.66 3 1 C3.12375 1.969375 3.2475 2.93875 3.375 3.9375 C3.58125 4.948125 3.7875 5.95875 4 7 C4.66 7.33 5.32 7.66 6 8 C5.34 8.66 4.68 9.32 4 10 C2.99406757 8.8803014 1.9954151 7.7540588 1 6.625 C0.443125 5.99851562 -0.11375 5.37203125 -0.6875 4.7265625 C-2 3 -2 3 -2 1 C-1.34 0.67 -0.68 0.34 0 0 Z M5 1 C5.33 1.66 5.66 2.32 6 3 C5.34 2.67 4.68 2.34 4 2 C4.33 1.67 4.66 1.34 5 1 Z " fill="#F25F65" transform="translate(177,264)"/>
<path d="M0 0 C-0.928125 0.556875 -1.85625 1.11375 -2.8125 1.6875 C-5.9419407 3.95787855 -7.29754051 5.59508103 -9 9 C-9.99 8.67 -10.98 8.34 -12 8 C-10.7260411 5.96166576 -9.38938077 3.96147874 -8 2 C-7.34 2 -6.68 2 -6 2 C-6 1.34 -6 0.68 -6 0 C-3.50907189 -1.24546405 -2.58919267 -0.7767578 0 0 Z " fill="#6C82E7" transform="translate(232,218)"/>
<path d="M0 0 C3 1 3 1 4 3 C-0.34492771 4.13896163 -4.38620785 3.93100471 -8.8125 3.5625 C-9.85180664 3.48418945 -9.85180664 3.48418945 -10.91210938 3.40429688 C-12.60854437 3.27560181 -14.30434863 3.13863816 -16 3 C-16 2.67 -16 2.34 -16 2 C-14.92878906 1.93941406 -13.85757813 1.87882812 -12.75390625 1.81640625 C-11.35675609 1.73201463 -9.95962143 1.64736594 -8.5625 1.5625 C-7.50192383 1.50352539 -7.50192383 1.50352539 -6.41992188 1.44335938 C-2.91309581 1.52375562 -2.91309581 1.52375562 0 0 Z " fill="#F86163" transform="translate(257,273)"/>
<path d="M0 0 C4.49797113 1.68673918 8.72886302 3.81673892 13 6 C10.60042386 6.84119973 9.35077442 7.11193544 6.89453125 6.328125 C6.20746094 5.97234375 5.52039063 5.6165625 4.8125 5.25 C4.11769531 4.90453125 3.42289063 4.5590625 2.70703125 4.203125 C1 3 1 3 0 0 Z " fill="#657BE3" transform="translate(223,306)"/>
<path d="M0 0 C0.66 0.99 1.32 1.98 2 3 C1.19185349 4.33597652 0.37836819 5.668725 -0.4375 7 C-1.11619141 8.11375 -1.11619141 8.11375 -1.80859375 9.25 C-2.20175781 9.8275 -2.59492188 10.405 -3 11 C-3.33 11 -3.66 11 -4 11 C-4.36630156 7.06225823 -4.30233203 5.43460229 -2 2.125 C-1.34 1.42375 -0.68 0.7225 0 0 Z " fill="#E8F3FE" transform="translate(222,218)"/>
<path d="M0 0 C2.41824183 2.41824183 3.47403755 4.9480751 5 8 C5.96534522 9.35863401 6.95277149 10.70343137 8 12 C5.125 11.375 5.125 11.375 2 10 C0.27251133 6.38797823 0 4.02768404 0 0 Z " fill="#FDD5D2" transform="translate(173,262)"/>
<path d="M0 0 C1.231394 3.69418201 0.64432764 6.2056261 0 10 C-2.31 10.66 -4.62 11.32 -7 12 C-6.21625 11.13375 -5.4325 10.2675 -4.625 9.375 C-2.16613272 6.44943553 -0.97549896 3.72463238 0 0 Z " fill="#FEEAE6" transform="translate(271,262)"/>
<path d="M0 0 C1.38609004 3.15020465 0.89180331 4.31918022 -0.25 7.6875 C-2 11 -2 11 -5 12 C-5 10.68 -5 9.36 -5 8 C-4.01 7.67 -3.02 7.34 -2 7 C-0.77030122 3.48809191 -0.77030122 3.48809191 0 0 Z " fill="#ED7F80" transform="translate(270,260)"/>
<path d="M0 0 C3.63 0 7.26 0 11 0 C10.67 0.66 10.34 1.32 10 2 C7.71484375 2.4140625 7.71484375 2.4140625 4.9375 2.625 C4.01839844 2.69976562 3.09929687 2.77453125 2.15234375 2.8515625 C1.44207031 2.90054688 0.73179687 2.94953125 0 3 C0 2.01 0 1.02 0 0 Z " fill="#EEF9FF" transform="translate(238,235)"/>
</svg>
